<?xml version='1.0' encoding='ascii'?>
<svg xmlns="http://www.w3.org/2000/svg" height="1080" version="1.1" width="1920">
    <g id="RenderLayer_LineSet" inkscape:groupmode="lineset" inkscape:label="RenderLayer_LineSet" xmlns:inkscape="http://www.inkscape.org/namespaces/inkscape">
        <g id="frame_0000" inkscape:groupmode="frame" inkscape:label="frame_0000">
            <g id="strokes" inkscape:groupmode="layer" inkscape:label="strokes" xmlns:inkscape="http://www.inkscape.org/namespaces/inkscape">
                <path d=" M 786.448, 525.259 786.037, 515.268 785.625, 505.276 785.214, 495.285 785.036, 490.958 784.625, 480.967 784.213, 470.975 783.802, 460.984 783.391, 450.992 782.979, 441.001 782.568, 431.009 782.157, 421.018 781.745, 411.026 781.334, 401.034 781.145, 396.436 780.733, 386.444 780.467, 379.989 780.151, 372.290 779.739, 362.299 779.497, 356.421 779.148, 347.946 778.737, 337.955 778.519, 332.665 778.138, 323.402 777.727, 313.410 777.533, 308.718 777.119, 298.654 776.708, 288.662 776.540, 284.578 776.128, 274.586 776.092, 273.700 775.680, 263.708 775.538, 260.243 775.126, 250.251 775.056, 248.538 774.644, 238.546 774.528, 235.710 774.116, 225.718 774.011, 223.165 773.600, 213.173 773.509, 210.977 773.098, 200.985 772.958, 197.578 772.546, 187.586 772.483, 186.041 772.072, 176.050 771.896, 171.775 771.484, 161.783 771.448, 160.901 771.036, 150.909 770.824, 145.752 770.413, 135.761 770.404, 135.552 769.993, 125.561 769.744, 119.508 769.352, 109.994 768.941, 100.002 768.654, 93.039 768.291, 84.222 767.880, 74.231 767.555, 66.342 767.483, 64.596 757.845, 61.929 749.354, 59.578 744.488, 58.232 734.516, 58.977 724.544, 59.723 720.471, 60.028 720.957, 70.016 721.443, 80.004 721.929, 89.992 722.415, 99.980 722.902, 109.969 723.388, 119.957 723.874, 129.945 724.360, 139.933 724.846, 149.921 725.332, 159.909 725.819, 169.898 726.305, 179.886 726.791, 189.874 727.277, 199.862 727.763, 209.850 728.249, 219.839 728.735, 229.827 729.222, 239.815 729.708, 249.803 730.194, 259.791 730.680, 269.779 731.166, 279.768 731.652, 289.756 732.139, 299.744 732.625, 309.732 733.111, 319.720 733.597, 329.708 734.083, 339.697 734.569, 349.685 735.056, 359.673 735.542, 369.661 736.028, 379.649 736.514, 389.637 737.000, 399.626 737.486, 409.614 737.973, 419.602 738.459, 429.590 738.945, 439.578 739.431, 449.567 739.917, 459.555 740.403, 469.543 740.890, 479.531 741.376, 489.519 741.812, 498.488 " fill="none" stroke="rgb(0, 0, 0)" stroke-linecap="butt" stroke-linejoin="bevel" stroke-opacity="1.0" stroke-width="3.0" />
                <path d=" M 743.026, 66.470 733.410, 63.724 723.795, 60.977 720.471, 60.028 " fill="none" stroke="rgb(0, 0, 0)" stroke-linecap="butt" stroke-linejoin="bevel" stroke-opacity="1.0" stroke-width="3.0" />
                <path d=" M 767.483, 64.596 757.512, 65.360 747.542, 66.124 744.779, 66.336 743.026, 66.470 743.476, 76.460 743.927, 86.450 744.377, 96.440 744.828, 106.430 745.279, 116.420 745.729, 126.409 746.180, 136.399 746.630, 146.389 747.081, 156.379 747.532, 166.369 747.982, 176.359 748.433, 186.349 748.883, 196.338 749.334, 206.328 749.785, 216.318 750.235, 226.308 750.686, 236.298 751.136, 246.288 751.587, 256.277 752.038, 266.267 752.488, 276.257 752.939, 286.247 753.389, 296.237 753.840, 306.227 754.291, 316.217 754.741, 326.206 755.192, 336.196 755.642, 346.186 756.093, 356.176 756.544, 366.166 756.994, 376.156 757.445, 386.145 757.895, 396.135 758.346, 406.125 758.797, 416.115 759.247, 426.105 759.698, 436.095 760.148, 446.084 760.599, 456.074 761.049, 466.064 761.500, 476.054 761.951, 486.044 762.351, 494.910 762.801, 504.900 763.252, 514.890 763.702, 524.880 764.153, 534.870 764.248, 536.985 " fill="none" stroke="rgb(0, 0, 0)" stroke-linecap="butt" stroke-linejoin="bevel" stroke-opacity="1.0" stroke-width="3.0" />
                <path d=" M 1085.122, 454.183 1085.227, 444.183 1085.331, 434.184 1085.435, 424.185 1085.539, 414.185 1085.644, 404.186 1085.748, 394.186 1085.852, 384.187 1085.957, 374.187 1086.061, 364.188 1086.165, 354.188 1086.269, 344.189 1086.374, 334.189 1086.478, 324.190 1086.582, 314.190 1086.687, 304.191 1086.791, 294.192 1086.895, 284.192 1086.999, 274.193 1087.104, 264.193 1087.208, 254.194 1087.312, 244.194 1087.417, 234.195 1087.521, 224.195 1087.625, 214.196 1087.729, 204.196 1087.834, 194.197 1087.938, 184.198 1088.042, 174.198 1088.146, 164.199 1088.251, 154.199 1088.355, 144.200 1088.459, 134.200 1088.564, 124.201 1088.668, 114.201 1088.772, 104.202 1088.876, 94.202 1088.981, 84.203 1089.085, 74.203 1089.189, 64.204 1089.294, 54.205 1089.398, 44.205 1089.443, 39.927 1079.620, 38.053 1069.797, 36.180 1061.226, 34.544 1051.253, 35.290 1041.281, 36.036 1040.533, 36.092 1040.528, 37.690 " fill="none" stroke="rgb(0, 0, 0)" stroke-linecap="butt" stroke-linejoin="bevel" stroke-opacity="1.0" stroke-width="3.0" />
                <path d=" M 1068.441, 41.537 1058.626, 39.622 1048.811, 37.707 1040.533, 36.092 " fill="none" stroke="rgb(0, 0, 0)" stroke-linecap="butt" stroke-linejoin="bevel" stroke-opacity="1.0" stroke-width="3.0" />
                <path d=" M 1089.443, 39.927 1079.472, 40.691 1069.501, 41.455 1068.441, 41.537 1068.430, 43.150 1068.359, 53.150 1068.288, 63.149 1068.253, 68.140 1068.182, 78.140 1068.112, 88.139 1068.078, 92.891 1068.007, 102.890 1067.937, 112.890 1067.904, 117.489 1067.833, 127.489 1067.762, 137.489 1067.732, 141.847 1067.661, 151.847 1067.590, 161.846 1067.560, 166.063 1067.490, 176.063 1067.419, 186.063 1067.391, 190.037 1067.320, 200.037 1067.249, 210.036 1067.222, 213.880 1067.151, 223.880 1067.081, 233.879 1067.055, 237.478 1066.984, 247.478 1066.914, 257.478 1066.889, 260.956 1066.818, 270.956 1066.747, 280.956 1066.725, 284.189 1066.654, 294.188 1066.583, 304.188 1066.561, 307.310 1066.490, 317.310 1066.419, 327.310 1066.399, 330.185 1066.328, 340.184 1066.258, 350.184 1066.238, 352.958 1066.167, 362.958 1066.097, 372.958 1066.026, 382.957 1065.955, 392.957 1065.884, 402.957 1065.813, 412.957 1065.743, 422.956 1065.672, 432.956 1065.601, 442.956 1065.592, 444.308 " fill="none" stroke="rgb(0, 0, 0)" stroke-linecap="butt" stroke-linejoin="bevel" stroke-opacity="1.0" stroke-width="3.0" />
                <path d=" M 768.582, 93.045 768.654, 93.039 778.620, 92.211 788.585, 91.382 798.551, 90.554 808.517, 89.726 818.482, 88.898 828.448, 88.069 838.414, 87.241 848.379, 86.413 858.345, 85.585 868.310, 84.757 878.276, 83.928 888.242, 83.100 898.207, 82.272 908.173, 81.444 918.139, 80.616 928.104, 79.787 938.070, 78.959 948.036, 78.131 958.001, 77.303 967.967, 76.474 977.933, 75.646 987.898, 74.818 997.864, 73.990 1007.829, 73.162 1017.795, 72.333 1027.761, 71.505 1040.443, 70.451 1050.408, 69.623 1060.374, 68.795 1061.023, 68.741 1068.253, 68.140 1068.322, 68.134 1068.392, 58.135 1068.463, 48.135 1068.499, 43.163 " fill="none" stroke="rgb(0, 0, 0)" stroke-linecap="butt" stroke-linejoin="bevel" stroke-opacity="1.0" stroke-width="3.0" />
                <path d=" M 1068.499, 43.163 1058.528, 43.931 1048.558, 44.699 1040.509, 45.319 1030.538, 46.087 1020.568, 46.855 1010.597, 47.623 1000.627, 48.391 990.656, 49.159 980.686, 49.927 970.715, 50.695 960.745, 51.463 950.774, 52.230 940.804, 52.998 930.833, 53.766 920.863, 54.534 910.892, 55.302 900.922, 56.070 890.951, 56.838 880.981, 57.606 871.010, 58.374 861.040, 59.142 851.070, 59.910 841.099, 60.677 831.129, 61.445 821.158, 62.213 811.188, 62.981 801.217, 63.749 791.247, 64.517 781.276, 65.285 771.306, 66.053 767.555, 66.342 767.482, 66.347 767.894, 76.339 768.305, 86.331 768.582, 93.045 " fill="none" stroke="rgb(0, 0, 0)" stroke-linecap="butt" stroke-linejoin="bevel" stroke-opacity="1.0" stroke-width="3.0" />
                <path d=" M 770.752, 145.759 770.824, 145.752 780.779, 144.805 790.734, 143.858 800.689, 142.911 810.644, 141.964 820.599, 141.017 830.555, 140.070 840.510, 139.123 850.465, 138.176 860.420, 137.229 870.375, 136.281 880.330, 135.334 890.285, 134.387 900.240, 133.440 910.195, 132.493 920.150, 131.546 930.105, 130.599 940.060, 129.652 950.015, 128.705 959.970, 127.758 969.925, 126.811 979.880, 125.864 989.835, 124.917 999.790, 123.969 1009.745, 123.022 1019.701, 122.075 1029.656, 121.128 1040.313, 120.114 1050.268, 119.167 1060.223, 118.220 1060.731, 118.172 1067.904, 117.489 1067.972, 117.483 1068.043, 107.483 1068.114, 97.483 1068.146, 92.907 " fill="none" stroke="rgb(0, 0, 0)" stroke-linecap="butt" stroke-linejoin="bevel" stroke-opacity="1.0" stroke-width="3.0" />
                <path d=" M 1068.146, 92.907 1058.186, 93.795 1048.225, 94.683 1040.378, 95.382 1030.417, 96.270 1020.457, 97.158 1010.496, 98.046 1000.536, 98.934 990.575, 99.822 980.615, 100.710 970.654, 101.598 960.694, 102.486 950.733, 103.374 940.773, 104.261 930.812, 105.149 920.852, 106.037 910.891, 106.925 900.931, 107.813 890.970, 108.701 881.010, 109.589 871.049, 110.477 861.089, 111.365 851.128, 112.253 841.168, 113.141 831.207, 114.029 821.247, 114.917 811.286, 115.805 801.326, 116.693 791.365, 117.581 781.405, 118.468 769.744, 119.508 769.672, 119.514 770.083, 129.506 770.495, 139.497 770.752, 145.759 " fill="none" stroke="rgb(0, 0, 0)" stroke-linecap="butt" stroke-linejoin="bevel" stroke-opacity="1.0" stroke-width="3.0" />
                <path d=" M 772.887, 197.586 772.958, 197.578 782.901, 196.514 792.844, 195.451 802.788, 194.387 812.731, 193.323 822.674, 192.260 832.617, 191.196 842.561, 190.132 852.504, 189.069 862.447, 188.005 872.391, 186.941 882.334, 185.878 892.277, 184.814 902.220, 183.750 912.164, 182.687 922.107, 181.623 932.050, 180.559 941.993, 179.496 951.937, 178.432 961.880, 177.368 971.823, 176.305 981.766, 175.241 991.710, 174.177 1001.653, 173.114 1011.596, 172.050 1021.540, 170.986 1031.483, 169.923 1040.185, 168.992 1050.129, 167.928 1060.072, 166.864 1060.443, 166.825 1067.560, 166.063 1067.628, 166.056 1067.698, 156.056 1067.769, 146.057 1067.799, 141.865 " fill="none" stroke="rgb(0, 0, 0)" stroke-linecap="butt" stroke-linejoin="bevel" stroke-opacity="1.0" stroke-width="3.0" />
                <path d=" M 1067.799, 141.865 1057.850, 142.871 1047.901, 143.877 1040.249, 144.650 1030.300, 145.656 1020.350, 146.661 1010.401, 147.667 1000.452, 148.673 990.502, 149.678 980.553, 150.684 970.604, 151.690 960.654, 152.695 950.705, 153.701 940.756, 154.707 930.807, 155.712 920.857, 156.718 910.908, 157.724 900.959, 158.729 891.009, 159.735 881.060, 160.741 871.111, 161.746 861.161, 162.752 851.212, 163.758 841.263, 164.763 831.314, 165.769 821.364, 166.774 811.415, 167.780 801.466, 168.786 791.516, 169.792 781.567, 170.797 771.896, 171.775 771.824, 171.782 772.236, 181.773 772.647, 191.765 772.887, 197.586 " fill="none" stroke="rgb(0, 0, 0)" stroke-linecap="butt" stroke-linejoin="bevel" stroke-opacity="1.0" stroke-width="3.0" />
                <path d=" M 774.985, 248.546 775.056, 248.538 784.986, 247.360 794.917, 246.182 804.847, 245.004 814.777, 243.826 824.708, 242.648 834.638, 241.470 844.568, 240.292 854.499, 239.114 864.429, 237.936 874.360, 236.758 884.290, 235.580 894.220, 234.402 904.151, 233.224 914.081, 232.046 924.011, 230.868 933.942, 229.690 943.872, 228.512 953.803, 227.334 963.733, 226.156 973.663, 224.978 983.594, 223.800 993.524, 222.622 1003.454, 221.444 1013.385, 220.266 1023.315, 219.088 1033.246, 217.910 1040.060, 217.102 1049.990, 215.924 1059.920, 214.746 1060.160, 214.718 1067.222, 213.880 1067.289, 213.872 1067.360, 203.872 1067.431, 193.872 1067.458, 190.057 " fill="none" stroke="rgb(0, 0, 0)" stroke-linecap="butt" stroke-linejoin="bevel" stroke-opacity="1.0" stroke-width="3.0" />
                <path d=" M 1067.458, 190.057 1057.521, 191.179 1047.584, 192.300 1040.122, 193.142 1030.185, 194.263 1020.248, 195.384 1010.311, 196.505 1000.374, 197.626 990.437, 198.747 980.500, 199.868 970.564, 200.989 960.627, 202.110 950.690, 203.232 940.753, 204.353 930.816, 205.474 920.879, 206.595 910.942, 207.716 901.005, 208.837 891.068, 209.958 881.131, 211.079 871.194, 212.200 861.257, 213.322 851.320, 214.443 841.383, 215.564 831.446, 216.685 821.509, 217.806 811.572, 218.927 801.635, 220.048 791.698, 221.169 781.761, 222.290 774.011, 223.165 773.940, 223.173 774.352, 233.164 774.763, 243.156 774.985, 248.546 " fill="none" stroke="rgb(0, 0, 0)" stroke-linecap="butt" stroke-linejoin="bevel" stroke-opacity="1.0" stroke-width="3.0" />
                <path d=" M 777.049, 298.663 777.119, 298.654 787.035, 297.364 796.952, 296.074 806.868, 294.784 816.785, 293.494 826.701, 292.203 836.618, 290.913 846.534, 289.623 856.451, 288.333 866.367, 287.043 876.283, 285.753 886.200, 284.463 896.116, 283.173 906.033, 281.883 915.949, 280.593 925.866, 279.303 935.782, 278.013 945.698, 276.723 955.615, 275.433 965.531, 274.143 975.448, 272.852 985.364, 271.562 995.281, 270.272 1005.197, 268.982 1015.113, 267.692 1025.030, 266.402 1034.946, 265.112 1039.936, 264.463 1049.852, 263.173 1059.881, 261.868 1066.889, 260.956 1066.955, 260.948 1067.026, 250.948 1067.097, 240.948 1067.121, 237.501 " fill="none" stroke="rgb(0, 0, 0)" stroke-linecap="butt" stroke-linejoin="bevel" stroke-opacity="1.0" stroke-width="3.0" />
                <path d=" M 1067.121, 237.501 1057.198, 238.736 1047.274, 239.970 1039.997, 240.875 1030.074, 242.109 1020.150, 243.344 1010.227, 244.578 1000.303, 245.812 990.380, 247.046 980.456, 248.281 970.533, 249.515 960.609, 250.749 950.686, 251.984 940.762, 253.218 930.839, 254.452 920.915, 255.687 910.992, 256.921 901.068, 258.155 891.145, 259.390 881.221, 260.624 871.297, 261.858 861.374, 263.092 851.450, 264.327 841.527, 265.561 831.603, 266.795 821.680, 268.030 811.756, 269.264 801.833, 270.498 791.909, 271.733 781.986, 272.967 776.092, 273.700 776.021, 273.709 776.433, 283.700 776.844, 293.692 777.049, 298.663 " fill="none" stroke="rgb(0, 0, 0)" stroke-linecap="butt" stroke-linejoin="bevel" stroke-opacity="1.0" stroke-width="3.0" />
                <path d=" M 779.079, 347.956 779.148, 347.946 789.050, 346.546 798.951, 345.146 808.853, 343.747 818.754, 342.347 828.656, 340.947 838.557, 339.547 848.459, 338.147 858.361, 336.747 868.262, 335.347 878.164, 333.947 888.065, 332.547 897.967, 331.147 907.868, 329.747 917.770, 328.347 927.671, 326.947 937.573, 325.547 947.474, 324.148 957.376, 322.748 967.277, 321.348 977.179, 319.948 987.080, 318.548 996.982, 317.148 1006.883, 315.748 1016.785, 314.348 1026.686, 312.948 1036.588, 311.548 1039.814, 311.092 1049.716, 309.692 1059.606, 308.294 1066.561, 307.310 1066.627, 307.301 1066.698, 297.301 1066.769, 287.302 1066.790, 284.214 " fill="none" stroke="rgb(0, 0, 0)" stroke-linecap="butt" stroke-linejoin="bevel" stroke-opacity="1.0" stroke-width="3.0" />
                <path d=" M 1066.790, 284.214 1056.881, 285.559 1046.972, 286.904 1039.875, 287.868 1029.966, 289.213 1020.056, 290.558 1010.147, 291.904 1000.238, 293.249 990.329, 294.594 980.420, 295.940 970.511, 297.285 960.602, 298.630 950.693, 299.975 940.784, 301.321 930.875, 302.666 920.966, 304.011 911.056, 305.356 901.147, 306.702 891.238, 308.047 881.329, 309.392 871.420, 310.738 861.511, 312.083 851.602, 313.428 841.693, 314.773 831.784, 316.119 821.875, 317.464 811.965, 318.809 802.056, 320.155 792.147, 321.500 782.238, 322.845 778.138, 323.402 778.068, 323.411 778.480, 333.403 778.891, 343.394 779.079, 347.956 " fill="none" stroke="rgb(0, 0, 0)" stroke-linecap="butt" stroke-linejoin="bevel" stroke-opacity="1.0" stroke-width="3.0" />
                <path d=" M 781.076, 396.446 781.145, 396.436 791.030, 394.928 800.916, 393.420 810.802, 391.913 820.687, 390.405 830.573, 388.898 840.459, 387.390 850.345, 385.882 860.230, 384.375 870.116, 382.867 880.002, 381.360 889.887, 379.852 899.773, 378.344 909.659, 376.837 919.544, 375.329 929.430, 373.822 939.316, 372.314 949.202, 370.806 959.087, 369.299 968.973, 367.791 978.859, 366.284 988.744, 364.776 998.630, 363.268 1008.516, 361.761 1018.401, 360.253 1028.287, 358.746 1039.694, 357.006 1049.580, 355.498 1059.336, 354.011 1066.238, 352.958 1066.303, 352.948 1066.374, 342.948 1066.445, 332.949 1066.464, 330.212 " fill="none" stroke="rgb(0, 0, 0)" stroke-linecap="butt" stroke-linejoin="bevel" stroke-opacity="1.0" stroke-width="3.0" />
                <path d=" M 1066.464, 330.212 1056.571, 331.666 1046.677, 333.120 1039.754, 334.137 1029.860, 335.591 1019.966, 337.045 1010.073, 338.500 1000.179, 339.954 990.285, 341.408 980.391, 342.862 970.498, 344.316 960.604, 345.770 950.710, 347.224 940.817, 348.678 930.923, 350.132 921.029, 351.586 911.135, 353.040 901.242, 354.494 891.348, 355.948 881.454, 357.402 871.560, 358.856 861.667, 360.310 851.773, 361.764 841.879, 363.218 831.986, 364.672 822.092, 366.126 812.198, 367.580 802.304, 369.034 792.411, 370.488 780.151, 372.290 780.082, 372.300 780.493, 382.292 780.905, 392.283 781.076, 396.446 " fill="none" stroke="rgb(0, 0, 0)" stroke-linecap="butt" stroke-linejoin="bevel" stroke-opacity="1.0" stroke-width="3.0" />
                <path d=" M 1017.468, 648.802 1017.479, 658.802 1017.491, 668.802 1017.503, 678.802 1017.515, 688.802 1017.527, 698.802 1017.539, 708.802 1017.550, 718.802 1017.562, 728.802 1017.574, 738.802 1017.586, 748.802 1017.598, 758.802 1017.610, 768.802 1017.622, 778.802 1017.633, 788.802 1017.645, 798.802 1017.655, 807.224 1025.406, 813.542 1031.631, 818.616 1041.301, 816.065 1050.970, 813.514 1059.940, 811.148 1060.005, 801.148 1060.070, 791.148 1060.136, 781.149 1060.201, 771.149 1060.266, 761.149 1060.331, 751.149 1060.396, 741.150 1060.462, 731.150 1060.527, 721.150 1060.592, 711.150 1060.657, 701.150 1060.722, 691.151 1060.787, 681.151 1060.853, 671.151 1060.918, 661.151 1060.983, 651.151 1061.048, 641.152 1061.061, 639.125 " fill="none" stroke="rgb(0, 0, 0)" stroke-linecap="butt" stroke-linejoin="bevel" stroke-opacity="1.0" stroke-width="3.0" />
                <path d=" M 1031.631, 818.616 1031.645, 808.616 1031.659, 798.616 1031.672, 788.616 1031.686, 778.616 1031.699, 768.616 1031.713, 758.616 1031.727, 748.616 1031.740, 738.616 1031.754, 728.616 1031.768, 718.616 1031.781, 708.616 1031.795, 698.616 1031.808, 688.616 1031.822, 678.616 1031.836, 668.616 1031.849, 658.616 1031.863, 648.616 1031.867, 645.605 " fill="none" stroke="rgb(0, 0, 0)" stroke-linecap="butt" stroke-linejoin="bevel" stroke-opacity="1.0" stroke-width="3.0" />
                <path d=" M 761.835, 567.057 762.292, 577.047 762.749, 587.037 763.206, 597.026 763.664, 607.016 764.121, 617.005 764.578, 626.995 765.035, 636.984 765.492, 646.974 765.949, 656.963 766.407, 666.953 766.864, 676.942 767.321, 686.932 767.778, 696.922 768.235, 706.911 768.692, 716.901 769.149, 726.890 769.607, 736.880 770.064, 746.869 770.521, 756.859 770.978, 766.848 771.435, 776.838 771.892, 786.827 772.349, 796.817 772.807, 806.806 773.264, 816.796 773.721, 826.786 774.178, 836.775 774.635, 846.765 775.092, 856.754 775.550, 866.744 775.706, 870.171 782.524, 877.487 787.644, 882.980 797.313, 880.429 806.983, 877.878 816.652, 875.328 819.378, 874.608 819.001, 864.616 818.624, 854.623 818.246, 844.630 817.869, 834.637 817.492, 824.644 817.115, 814.651 816.738, 804.658 816.360, 794.665 815.983, 784.673 815.606, 774.680 815.229, 764.687 814.851, 754.694 814.474, 744.701 814.097, 734.708 813.720, 724.715 813.342, 714.722 812.965, 704.729 812.588, 694.737 812.211, 684.744 811.833, 674.751 811.456, 664.758 811.079, 654.765 810.702, 644.772 810.325, 634.779 809.947, 624.786 809.570, 614.794 809.168, 604.133 " fill="none" stroke="rgb(0, 0, 0)" stroke-linecap="butt" stroke-linejoin="bevel" stroke-opacity="1.0" stroke-width="3.0" />
                <path d=" M 787.644, 882.980 787.208, 872.989 786.772, 862.999 786.336, 853.008 785.899, 843.018 785.463, 833.028 785.027, 823.037 784.590, 813.047 784.154, 803.056 783.718, 793.066 783.282, 783.075 782.845, 773.085 782.409, 763.094 781.973, 753.104 781.537, 743.113 781.100, 733.123 780.664, 723.132 780.228, 713.142 779.792, 703.151 779.355, 693.161 778.919, 683.170 778.483, 673.180 778.047, 663.189 777.610, 653.199 777.174, 643.208 776.738, 633.218 776.302, 623.227 775.865, 613.237 775.429, 603.246 774.993, 593.256 774.557, 583.266 774.274, 576.801 " fill="none" stroke="rgb(0, 0, 0)" stroke-linecap="butt" stroke-linejoin="bevel" stroke-opacity="1.0" stroke-width="3.0" />
                <path d=" M 905.741, 673.604 905.952, 683.602 906.162, 693.599 906.373, 703.597 906.583, 713.595 906.794, 723.593 907.004, 733.591 907.215, 743.588 907.425, 753.586 907.635, 763.584 907.846, 773.582 908.056, 783.579 908.267, 793.577 908.477, 803.575 908.688, 813.573 908.898, 823.571 909.109, 833.568 909.319, 843.566 909.530, 853.564 909.740, 863.562 909.951, 873.560 910.161, 883.557 910.371, 893.555 910.582, 903.553 910.792, 913.551 911.003, 923.549 911.213, 933.546 911.424, 943.544 911.634, 953.542 911.845, 963.540 912.055, 973.537 912.266, 983.535 912.476, 993.533 912.686, 1003.531 912.897, 1013.529 912.980, 1017.458 919.798, 1024.773 926.616, 1032.089 928.412, 1034.016 937.968, 1031.070 947.524, 1028.125 957.081, 1025.180 963.326, 1023.256 963.210, 1013.256 963.095, 1003.257 962.980, 993.258 962.865, 983.258 962.749, 973.259 962.634, 963.260 962.519, 953.260 962.403, 943.261 962.288, 933.262 962.173, 923.262 962.057, 913.263 961.942, 903.264 961.827, 893.264 961.712, 883.265 961.596, 873.266 961.481, 863.266 961.366, 853.267 961.250, 843.267 961.135, 833.268 961.020, 823.269 960.904, 813.270 960.789, 803.270 960.674, 793.271 960.559, 783.271 960.443, 773.272 960.328, 763.273 960.213, 753.273 960.097, 743.274 959.982, 733.275 959.867, 723.275 959.751, 713.276 959.636, 703.277 959.521, 693.277 959.406, 683.278 959.290, 673.279 959.157, 661.746 " fill="none" stroke="rgb(0, 0, 0)" stroke-linecap="butt" stroke-linejoin="bevel" stroke-opacity="1.0" stroke-width="3.0" />
                <path d=" M 928.412, 1034.016 928.230, 1024.017 928.048, 1014.019 927.866, 1004.021 927.684, 994.022 927.502, 984.024 927.321, 974.025 927.139, 964.027 926.957, 954.029 926.775, 944.030 926.593, 934.032 926.411, 924.034 926.230, 914.035 926.048, 904.037 925.866, 894.039 925.684, 884.040 925.502, 874.042 925.321, 864.044 925.139, 854.045 924.957, 844.047 924.775, 834.049 924.593, 824.050 924.411, 814.052 924.230, 804.054 924.048, 794.055 923.866, 784.057 923.684, 774.059 923.502, 764.060 923.320, 754.062 923.139, 744.064 922.957, 734.065 922.775, 724.067 922.593, 714.068 922.411, 704.070 922.230, 694.072 922.048, 684.073 921.866, 674.075 921.793, 670.041 " fill="none" stroke="rgb(0, 0, 0)" stroke-linecap="butt" stroke-linejoin="bevel" stroke-opacity="1.0" stroke-width="3.0" />
                <path d=" M 1186.586, 611.260 1186.300, 621.256 1186.015, 631.252 1185.729, 641.248 1185.444, 651.244 1185.158, 661.239 1184.873, 671.235 1184.588, 681.231 1184.302, 691.227 1184.017, 701.223 1183.731, 711.219 1183.446, 721.215 1183.161, 731.211 1182.875, 741.207 1182.590, 751.203 1182.304, 761.199 1182.019, 771.195 1181.733, 781.191 1181.448, 791.186 1181.162, 801.182 1180.877, 811.178 1180.592, 821.174 1180.306, 831.170 1180.021, 841.166 1179.735, 851.162 1179.450, 861.158 1179.165, 871.154 1178.879, 881.150 1178.594, 891.146 1178.308, 901.142 1178.023, 911.138 1177.737, 921.134 1177.452, 931.129 1177.275, 937.330 1185.026, 943.648 1192.777, 949.966 1195.071, 951.835 1204.627, 948.890 1214.184, 945.945 1223.740, 943.000 1225.747, 942.381 1226.123, 932.389 1226.499, 922.396 1226.875, 912.403 1227.251, 902.410 1227.627, 892.417 1228.003, 882.424 1228.379, 872.431 1228.755, 862.438 1229.131, 852.445 1229.507, 842.452 1229.883, 832.459 1230.259, 822.466 1230.635, 812.473 1231.011, 802.480 1231.387, 792.488 1231.763, 782.495 1232.140, 772.502 1232.516, 762.509 1232.891, 752.516 1233.268, 742.523 1233.644, 732.530 1234.020, 722.537 1234.396, 712.544 1234.772, 702.551 1235.148, 692.558 1235.524, 682.565 1235.900, 672.572 1236.276, 662.579 1236.652, 652.587 1237.028, 642.594 1237.404, 632.601 1237.780, 622.608 1238.156, 612.615 1238.642, 599.704 " fill="none" stroke="rgb(0, 0, 0)" stroke-linecap="butt" stroke-linejoin="bevel" stroke-opacity="1.0" stroke-width="3.0" />
                <path d=" M 1195.071, 951.835 1195.390, 941.840 1195.710, 931.846 1196.029, 921.851 1196.349, 911.856 1196.668, 901.861 1196.987, 891.866 1197.307, 881.871 1197.626, 871.876 1197.946, 861.881 1198.265, 851.886 1198.584, 841.891 1198.904, 831.897 1199.223, 821.902 1199.543, 811.907 1199.862, 801.912 1200.182, 791.917 1200.501, 781.922 1200.821, 771.927 1201.140, 761.932 1201.459, 751.937 1201.779, 741.943 1202.098, 731.948 1202.418, 721.953 1202.737, 711.958 1203.057, 701.963 1203.376, 691.968 1203.695, 681.973 1204.015, 671.978 1204.334, 661.983 1204.654, 651.988 1204.973, 641.994 1205.293, 631.999 1205.612, 622.004 1205.931, 612.009 1206.094, 606.929 " fill="none" stroke="rgb(0, 0, 0)" stroke-linecap="butt" stroke-linejoin="bevel" stroke-opacity="1.0" stroke-width="3.0" />
                <path d=" M 741.812, 498.488 731.961, 500.204 722.109, 501.920 721.367, 502.050 721.888, 512.036 722.410, 522.022 722.931, 532.009 723.181, 536.780 731.053, 542.946 738.925, 549.112 746.798, 555.279 754.670, 561.445 761.835, 567.057 769.707, 573.224 774.274, 576.801 782.147, 582.968 790.019, 589.134 796.469, 594.186 804.342, 600.353 809.168, 604.133 817.040, 610.299 824.913, 616.466 832.785, 622.632 840.657, 628.799 848.530, 634.965 856.402, 641.132 864.275, 647.298 872.147, 653.465 880.019, 659.631 887.892, 665.797 895.764, 671.964 899.599, 674.967 905.741, 673.604 915.504, 671.437 921.793, 670.041 931.555, 667.874 941.317, 665.706 942.615, 665.418 952.378, 663.251 959.157, 661.746 968.920, 659.579 978.682, 657.412 988.444, 655.245 998.207, 653.078 1007.969, 650.911 1017.468, 648.802 1027.230, 646.635 1031.867, 645.605 1041.629, 643.438 1046.366, 642.387 1056.128, 640.220 1061.061, 639.125 1070.824, 636.958 1080.586, 634.790 1090.349, 632.623 1100.111, 630.456 1109.873, 628.289 1119.635, 626.122 1129.398, 623.955 1139.160, 621.788 1148.923, 619.621 1158.685, 617.453 1168.447, 615.286 1178.210, 613.119 1186.586, 611.260 1196.348, 609.093 1206.094, 606.929 1215.856, 604.762 1218.779, 604.113 1228.541, 601.946 1238.303, 599.779 1238.642, 599.704 1248.404, 597.537 1258.167, 595.370 1267.929, 593.203 1277.691, 591.036 1279.763, 590.576 1280.211, 580.586 1280.658, 570.596 1281.105, 560.606 1281.426, 553.436 1272.502, 548.923 1263.578, 544.411 1254.654, 539.899 1245.729, 535.387 1236.805, 530.875 1227.881, 526.363 1218.957, 521.851 1210.033, 517.339 1201.109, 512.826 1192.184, 508.314 1183.260, 503.802 1174.336, 499.290 1165.412, 494.778 1156.488, 490.266 1147.564, 485.754 1138.640, 481.242 1129.715, 476.729 1120.791, 472.217 1111.867, 467.705 1102.943, 463.193 1094.019, 458.681 1085.122, 454.183 " fill="none" stroke="rgb(0, 0, 0)" stroke-linecap="butt" stroke-linejoin="bevel" stroke-opacity="1.0" stroke-width="3.0" />
                <path d=" M 1281.426, 553.436 1271.645, 555.514 1261.863, 557.593 1252.081, 559.672 1242.300, 561.751 1232.518, 563.830 1222.737, 565.909 1212.955, 567.987 1203.174, 570.066 1193.392, 572.145 1183.611, 574.224 1173.829, 576.303 1164.048, 578.382 1154.266, 580.461 1144.485, 582.539 1134.703, 584.618 1124.922, 586.697 1115.140, 588.776 1105.358, 590.855 1095.577, 592.934 1085.795, 595.012 1076.014, 597.091 1066.232, 599.170 1061.315, 600.215 1051.533, 602.294 1041.752, 604.373 1031.970, 606.452 1022.189, 608.531 1017.421, 609.544 1007.639, 611.623 997.858, 613.702 988.076, 615.780 978.295, 617.859 968.513, 619.938 958.732, 622.017 948.950, 624.096 939.169, 626.175 929.387, 628.253 919.606, 630.332 909.824, 632.411 900.043, 634.490 898.709, 634.773 " fill="none" stroke="rgb(0, 0, 0)" stroke-linecap="butt" stroke-linejoin="bevel" stroke-opacity="1.0" stroke-width="3.0" />
                <path d=" M 721.367, 502.050 729.373, 508.042 737.379, 514.033 742.765, 518.064 750.771, 524.056 758.777, 530.048 766.783, 536.040 767.297, 536.424 775.303, 542.416 781.591, 547.122 789.598, 553.114 797.604, 559.106 805.610, 565.098 807.755, 566.703 815.761, 572.695 823.767, 578.687 831.773, 584.679 839.779, 590.670 847.785, 596.662 855.791, 602.654 863.798, 608.646 871.804, 614.638 879.810, 620.630 887.816, 626.621 895.822, 632.613 898.709, 634.773 898.930, 644.771 899.151, 654.769 899.373, 664.766 899.599, 674.967 " fill="none" stroke="rgb(0, 0, 0)" stroke-linecap="butt" stroke-linejoin="bevel" stroke-opacity="1.0" stroke-width="3.0" />
                <path d=" M 1039.793, 319.113 1029.894, 320.532 1019.995, 321.951 1010.096, 323.370 1000.198, 324.788 990.299, 326.207 980.400, 327.626 970.501, 329.045 960.602, 330.463 950.703, 331.882 940.805, 333.301 930.906, 334.720 921.007, 336.138 911.108, 337.557 901.209, 338.976 891.310, 340.395 881.412, 341.814 871.513, 343.232 861.614, 344.651 851.715, 346.070 841.816, 347.489 831.917, 348.908 822.018, 350.326 812.120, 351.745 802.221, 353.164 792.322, 354.583 782.423, 356.001 779.497, 356.421 " fill="none" stroke="rgb(0, 0, 0)" stroke-linecap="butt" stroke-linejoin="bevel" stroke-opacity="1.0" stroke-width="3.0" />
                <path d=" M 1039.911, 273.979 1029.997, 275.292 1020.084, 276.604 1010.171, 277.917 1000.257, 279.229 990.344, 280.542 980.430, 281.855 970.517, 283.167 960.603, 284.480 950.690, 285.792 940.776, 287.105 930.863, 288.417 920.949, 289.730 911.036, 291.042 901.122, 292.355 891.209, 293.667 881.295, 294.980 871.382, 296.292 861.468, 297.605 851.555, 298.917 841.641, 300.230 831.728, 301.543 821.814, 302.855 811.901, 304.168 801.987, 305.480 792.074, 306.793 782.160, 308.105 777.533, 308.718 " fill="none" stroke="rgb(0, 0, 0)" stroke-linecap="butt" stroke-linejoin="bevel" stroke-opacity="1.0" stroke-width="3.0" />
                <path d=" M 1040.031, 228.159 1030.104, 229.363 1020.176, 230.567 1010.249, 231.772 1000.322, 232.976 990.395, 234.180 980.467, 235.384 970.540, 236.588 960.613, 237.793 950.686, 238.997 940.758, 240.201 930.831, 241.405 920.904, 242.609 910.977, 243.814 901.049, 245.018 891.122, 246.222 881.195, 247.426 871.268, 248.630 861.341, 249.835 851.413, 251.039 841.486, 252.243 831.559, 253.447 821.632, 254.651 811.704, 255.856 801.777, 257.060 791.850, 258.264 781.923, 259.468 775.538, 260.243 " fill="none" stroke="rgb(0, 0, 0)" stroke-linecap="butt" stroke-linejoin="bevel" stroke-opacity="1.0" stroke-width="3.0" />
                <path d=" M 1040.152, 181.637 1030.212, 182.730 1020.272, 183.824 1010.332, 184.918 1000.392, 186.012 990.452, 187.105 980.512, 188.199 970.572, 189.293 960.632, 190.387 950.692, 191.480 940.752, 192.574 930.812, 193.668 920.872, 194.762 910.932, 195.855 900.992, 196.949 891.052, 198.043 881.112, 199.137 871.172, 200.230 861.232, 201.324 851.292, 202.418 841.352, 203.512 831.412, 204.605 821.472, 205.699 811.532, 206.793 801.592, 207.887 791.652, 208.981 781.712, 210.074 773.509, 210.977 " fill="none" stroke="rgb(0, 0, 0)" stroke-linecap="butt" stroke-linejoin="bevel" stroke-opacity="1.0" stroke-width="3.0" />
                <path d=" M 1040.276, 134.396 1030.324, 135.377 1020.372, 136.358 1010.421, 137.339 1000.469, 138.320 990.517, 139.301 980.565, 140.283 970.614, 141.264 960.662, 142.245 950.710, 143.226 940.758, 144.207 930.807, 145.189 920.855, 146.170 910.903, 147.151 900.951, 148.132 891.000, 149.113 881.048, 150.095 871.096, 151.076 861.144, 152.057 851.193, 153.038 841.241, 154.019 831.289, 155.001 821.337, 155.982 811.386, 156.963 801.434, 157.944 791.482, 158.925 781.530, 159.906 771.448, 160.901 " fill="none" stroke="rgb(0, 0, 0)" stroke-linecap="butt" stroke-linejoin="bevel" stroke-opacity="1.0" stroke-width="3.0" />
                <path d=" M 1040.401, 86.419 1030.439, 87.286 1020.476, 88.152 1010.514, 89.019 1000.552, 89.885 990.589, 90.752 980.627, 91.618 970.664, 92.485 960.702, 93.351 950.740, 94.218 940.777, 95.084 930.815, 95.951 920.852, 96.817 910.890, 97.683 900.928, 98.550 890.965, 99.416 881.003, 100.283 871.040, 101.149 861.078, 102.016 851.116, 102.882 841.153, 103.749 831.191, 104.615 821.229, 105.482 811.266, 106.348 801.304, 107.215 791.341, 108.081 781.379, 108.948 769.352, 109.994 " fill="none" stroke="rgb(0, 0, 0)" stroke-linecap="butt" stroke-linejoin="bevel" stroke-opacity="1.0" stroke-width="3.0" />
                <path d=" M 1039.694, 357.006 1039.668, 367.006 1039.642, 377.006 1039.616, 387.006 1039.589, 397.006 1039.563, 407.006 1039.537, 417.006 1039.511, 427.006 1039.485, 437.006 1039.460, 446.637 " fill="none" stroke="rgb(0, 0, 0)" stroke-linecap="butt" stroke-linejoin="bevel" stroke-opacity="1.0" stroke-width="3.0" />
                <path d=" M 1039.814, 311.092 1039.793, 319.113 " fill="none" stroke="rgb(0, 0, 0)" stroke-linecap="butt" stroke-linejoin="bevel" stroke-opacity="1.0" stroke-width="3.0" />
                <path d=" M 1039.936, 264.463 1039.911, 273.979 " fill="none" stroke="rgb(0, 0, 0)" stroke-linecap="butt" stroke-linejoin="bevel" stroke-opacity="1.0" stroke-width="3.0" />
                <path d=" M 1040.060, 217.102 1040.033, 227.102 1040.031, 228.159 " fill="none" stroke="rgb(0, 0, 0)" stroke-linecap="butt" stroke-linejoin="bevel" stroke-opacity="1.0" stroke-width="3.0" />
                <path d=" M 1040.185, 168.992 1040.159, 178.992 1040.152, 181.637 " fill="none" stroke="rgb(0, 0, 0)" stroke-linecap="butt" stroke-linejoin="bevel" stroke-opacity="1.0" stroke-width="3.0" />
                <path d=" M 1040.313, 120.114 1040.287, 130.114 1040.276, 134.396 " fill="none" stroke="rgb(0, 0, 0)" stroke-linecap="butt" stroke-linejoin="bevel" stroke-opacity="1.0" stroke-width="3.0" />
                <path d=" M 1040.443, 70.451 1040.417, 80.451 1040.401, 86.419 " fill="none" stroke="rgb(0, 0, 0)" stroke-linecap="butt" stroke-linejoin="bevel" stroke-opacity="1.0" stroke-width="3.0" />
                <path d=" M 1040.528, 37.690 1030.557, 38.440 1020.585, 39.190 1010.613, 39.939 1000.641, 40.689 990.669, 41.438 980.697, 42.188 970.725, 42.938 960.754, 43.687 950.782, 44.437 940.810, 45.186 930.838, 45.936 920.866, 46.686 910.894, 47.435 900.922, 48.185 890.951, 48.934 880.979, 49.684 871.007, 50.434 861.035, 51.183 851.063, 51.933 841.091, 52.682 831.119, 53.432 821.147, 54.182 811.176, 54.931 801.204, 55.681 791.232, 56.430 781.260, 57.180 771.288, 57.930 761.316, 58.679 749.354, 59.578 " fill="none" stroke="rgb(0, 0, 0)" stroke-linecap="butt" stroke-linejoin="bevel" stroke-opacity="1.0" stroke-width="3.0" />
                <path d=" M 1039.460, 446.637 1029.608, 448.353 1019.757, 450.069 1009.905, 451.785 1000.053, 453.501 990.202, 455.218 980.350, 456.934 970.498, 458.650 960.647, 460.366 950.795, 462.082 940.943, 463.799 931.092, 465.515 921.240, 467.231 911.389, 468.947 901.537, 470.663 891.685, 472.380 881.834, 474.096 871.982, 475.812 862.130, 477.528 852.279, 479.244 842.427, 480.961 832.575, 482.677 822.724, 484.393 812.872, 486.109 803.021, 487.825 793.169, 489.542 785.036, 490.958 " fill="none" stroke="rgb(0, 0, 0)" stroke-linecap="butt" stroke-linejoin="bevel" stroke-opacity="1.0" stroke-width="3.0" />
            </g>
        </g>
    </g>
</svg>
