<svg version="1.2" xmlns="http://www.w3.org/2000/svg" viewBox="0 0 184 181" width="184" height="181">
	<title>&lt;Group&gt;</title>
	<style>
		.s0 { fill: #d88841 } 
		.s1 { fill: #ffba76 } 
		.s2 { fill: #ea985c } 
		.s3 { fill: #e59a4e } 
		.s4 { fill: #d8cac7 } 
		.s5 { fill: #ede5e2 } 
		.s6 { fill: #c9b6b3 } 
	</style>
	<g id="&lt;Group&gt;">
		<g id="&lt;Group&gt;">
			<g id="&lt;Group&gt;">
				<path id="&lt;Path&gt;" class="s0" d="m59 143.7l8.5-5.1v-8.5l-8.5 2.4c0 0-2.6 7.4 0 11.2z"/>
				<path id="&lt;Path&gt;" class="s1" d="m86.2 129.7c2.2-2.9 5-5.8 7.3-8.9-5.2 0.2-18 0.6-23.2-1.1-3.3-1.1-5.9-0.9-7.8 0.2l-8.7 5.2 0.6 2.3c3.1 0.5 6.1 1.5 9 2.3 1.6 0.4 3.4 0.8 5.1 1.3 0.4-0.8 1.1-1.3 2-1.3 1.2 0 6.4 1.2 13 3.7q1.3-1.8 2.7-3.7z"/>
				<path id="&lt;Path&gt;" class="s2" d="m86.2 129.7q0.9-1.2 1.9-2.4c-0.6-0.6-1-1.2-1.3-1.5-2.6 0.1-19 0.9-25-1.1-6.6-2.1-10.5 0.6-11 6.4-0.5 5.9 0 7.8 0 7.8l8.2 4.8c0 0-0.7-9 3-8.9 1.4 0 8.7 1.6 17.3 5.5 1.9-3.8 4.3-7.2 6.9-10.6z"/>
			</g>
			<g id="&lt;Group&gt;">
				<path id="&lt;Path&gt;" class="s0" d="m127.4 144l-8.5-5v-8.5l8.5 2.4c0 0 2.6 7.4 0 11.1z"/>
				<path id="&lt;Path&gt;" class="s1" d="m115.9 130.1c0.9 0 1.5 0.5 2 1.3 1.7-0.5 3.4-0.9 5-1.3 2.9-0.8 6-1.8 9-2.3l0.7-2.3-8.8-5.2c-1.9-1.2-4.5-1.3-7.8-0.2-6 1.9-22.4 1.2-25 1-2.5 3.1-18.9 22.8-25 27.8-6.5 5.5-10.4 12.7-10.9 19.1-0.6 6.5 0 7.8 0 7.8l8.5 5.1c0 0 5.7-13.5 7.6-17.3 1.9-3.8 28.3-23.2 28.3-23.2l-3.5-3.6c9.6-4.7 18.3-6.7 19.9-6.7z"/>
				<path id="&lt;Path&gt;" class="s0" d="m63.6 173.1c0.5-6.5 4.4-13.7 11-19.1 6-5 22.4-24.7 24.9-27.8 2.6 0.1 19 0.9 25-1.1 6.6-2.1 10.5 0.6 11 6.4 0.6 5.9 0 7.8 0 7.8l-8.1 4.7c0 0 0.7-8.9-3-8.9-1.9 0.1-13.4 2.8-24.9 9.4-11.4 6.6-22.9 17.2-24.8 19.3-3.7 4.3-3 12.4-3 12.4l-8.1 4.7c0 0-0.6-1.4 0-7.8z"/>
			</g>
			<g id="&lt;Group&gt;">
				<path id="&lt;Path&gt;" class="s1" d="m131.3 167.6c-0.6-6.4-4.5-13.6-11-19.1-6-4.9-22.2-24.3-24.9-27.7q-0.9 2.3-2 4.6v19.6c8 6 20.5 15.6 21.7 18.2 2 3.8 7.7 17.3 7.7 17.3l8.5-5.1c0 0 0.5-1.3 0-7.8z"/>
				<path id="&lt;Path&gt;" class="s2" d="m122.8 172.7c-0.6-6.5-4.5-13.7-11-19.1-4-3.3-12.5-13-18.5-20.1v14.7c9 6.2 16.8 13.5 18.3 15.2 3.7 4.3 3 12.4 3 12.4l8.2 4.7c0 0 0.5-1.3 0-7.8z"/>
			</g>
			<g id="&lt;Group&gt;">
				<path id="&lt;Path&gt;" class="s0" d="m82.3 127.7v1.6c0 3.4 4.5 6.2 10.1 6.2 5.6 0 10.1-2.8 10.1-6.2v-1.6z"/>
				<path id="&lt;Path&gt;" class="s1" d="m92.4 120.6c5.6 0 10.1 2.8 10.1 6.2 0 3.4-4.5 6.2-10.1 6.2-5.6 0-10.1-2.8-10.1-6.2 0-3.4 4.5-6.2 10.1-6.2z"/>
			</g>
			<g id="&lt;Group&gt;">
				<path id="&lt;Path&gt;" class="s2" d="m83.9 123.8v2.8c0 2.8 3.8 5.1 8.5 5.1 4.7 0 8.5-2.3 8.5-5.1v-2.8z"/>
				<path id="&lt;Path&gt;" class="s1" d="m92.4 118.8c4.7 0 8.5 2.4 8.5 5.2 0 2.9-3.8 5.2-8.5 5.2-4.7 0-8.5-2.3-8.5-5.2 0-2.8 3.8-5.2 8.5-5.2z"/>
			</g>
			<path id="&lt;Path&gt;" class="s0" d="m95.9 71.9h-7c0 0-9.1 4.5-9.1 13.1 0 4.5 2.4 10.7 5.2 18.7 1.4 4.2 2.2 19.9 2.2 19.9 0 1.8 2.3 3.2 5.2 3.2 2.8 0 5.1-1.4 5.1-3.2 0 0 0.8-15.7 2.3-19.9 2.8-8 5.2-14.2 5.2-18.7 0-8.6-9.1-13.1-9.1-13.1z"/>
			<g id="&lt;Group&gt;">
				<path id="&lt;Path&gt;" class="s0" d="m92.4 74.6c3.1 0 5.6 1.5 5.6 3.4 0 1.9-2.5 3.5-5.6 3.5-3.1 0-5.6-1.6-5.6-3.5 0-1.9 2.5-3.4 5.6-3.4z"/>
				<path id="&lt;Path&gt;" class="s0" d="m93.2 73.5q-0.4 0-0.8 0-0.4 0-0.9 0h-5.7v4c0 2.2 3 4 6.6 4 3.6 0 6.6-1.8 6.6-4v-4z"/>
				<path id="&lt;Path&gt;" class="s0" d="m92.4 69.5c3.6 0 6.6 1.8 6.6 4 0 2.2-3 4-6.6 4-3.6 0-6.6-1.8-6.6-4 0-2.2 3-4 6.6-4z"/>
				<path id="&lt;Path&gt;" class="s0" d="m96.6 72.4c0.8-1.9 1.4-4.7 1.4-7h-11.2c0 2.3 0.6 5.2 1.4 7.1 0.1 0.2 0.6 1.3 0.9 1.7q0.1 0 0.1 0c0.8 0.6 1.9 1 3.2 1 1.3 0 2.4-0.4 3.1-1q0.1 0 0.1 0c0.4-0.4 0.9-1.6 1-1.8z"/>
				<path id="&lt;Path&gt;" class="s0" d="m93.2 60.9q-0.4-0.1-0.8-0.1-0.4 0-0.9 0.1h-5.7v3.9c0 2.3 3 4 6.6 4 3.6 0 6.6-1.7 6.6-4v-3.9z"/>
				<path id="&lt;Path&gt;" class="s2" d="m92.4 56.8c3.6 0 6.6 1.8 6.6 4.1 0 2.2-3 4-6.6 4-3.6 0-6.6-1.8-6.6-4 0-2.3 3-4.1 6.6-4.1z"/>
			</g>
		</g>
		<g id="&lt;Group&gt;">
			<path id="&lt;Path&gt;" class="s3" d="m182.5 48.8c-4.9-24-42.9-42.7-89.2-42.8-46.6 0-84.8 18.7-89.5 42.8h-0.5v6h0.1c1.1 25.9 40.8 46.7 89.7 46.8 49.1 0.1 89-20.8 89.9-46.8v-6z"/>
			<path id="&lt;Path&gt;" class="s4" d="m3.3 41.9c0 0-3.7 14-3.1 41.3 0.4 18.9 0.6 45.1 3.4 48.7 3.3 4.3 8.1 7.1 11.9 14.2 2.4 4.6 13 7.5 17.4 6.8 4.5-0.7 11.4 1.9 15.9 6.2 4.5 4.2 8.9 5.4 13.8 3.1 5-2.2 15.2-1.8 18.4 1.8 2.9 3.4 13.5 4 17 0 4.5-5.1 12.6-1.9 19.1 1.4 2.3 1.1 10.6-1.5 13.3-6.3 2.8-4.9 9.4-4.7 13.3-3.8 3.9 1 11.7 1 12.8-4.6 1.1-5.5 0.6-8.7 7.2-8.2 6.7 0.6 16.4-6.9 17.9-11.8 3-9.9 2.1-63.1 1.4-78.2-0.7-15.1-179.7-10.6-179.7-10.6z"/>
			<path id="&lt;Path&gt;" class="s5" d="m93.3 0.8c49.6 0.1 89.8 21.6 89.7 48 0 26.4-40.3 47.7-89.9 47.6-49.6-0.1-89.8-21.6-89.8-48 0.1-26.4 40.3-47.7 90-47.6z"/>
			<path id="&lt;Path&gt;" class="s6" d="m33.7 118.8c-1.5 14.4-1 29.2-1 29.2 0 0 4.5-10.2 5.4-24 0.8-13.8 0-30.9 0-30.9 0 0-2.7 8.7-4.4 25.7z"/>
			<path id="&lt;Path&gt;" class="s6" d="m77.3 103.7c-0.1 1.2-2.7 15.5-3.7 27.5-0.9 11.9 0 25.1 0 25.1 0 0 2.3-10.6 4-24.7 1.7-14.1-0.3-27.9-0.3-27.9z"/>
			<path id="&lt;Path&gt;" class="s6" d="m131 98.1c0.1 1.3 2.7 15.6 3.7 27.5 0.9 11.9 0 25.1 0 25.1 0 0-2.3-10.5-4-24.6-1.7-14.1 0.3-28 0.3-28z"/>
			<path id="&lt;Path&gt;" class="s6" d="m156.8 85.9c0.1 1.2 2.7 15.5 3.7 27.4 0.9 12 0 25.1 0 25.1 0 0-2.3-10.5-4-24.6-1.7-14.1 0.3-27.9 0.3-27.9z"/>
		</g>
	</g>
</svg>